<?xml version="1.0" encoding="UTF-8"?>
<svg width="409px" height="327px" viewBox="0 0 409 327" version="1.1" xmlns="http://www.w3.org/2000/svg" xmlns:xlink="http://www.w3.org/1999/xlink">
    <!-- Generator: Sketch 50.2 (55047) - http://www.bohemiancoding.com/sketch -->
    <title>Upload</title>
    <desc>Created with Sketch.</desc>
    <defs></defs>
    <g id="Symbols" stroke="none" stroke-width="1" fill="none" fill-rule="evenodd">
        <g id="Upload" fill="#2191F5">
            <g id="Upload-2">
                <g id="Page-1">
                    <g id="Icons">
                        <path d="M397.034667,326.33189 L88.576,326.33189 C39.6832271,326.308372 0.0470745352,286.691312 0,237.798556 C0.370106276,231.731181 5.39868018,227 11.4773333,227 C17.5559865,227 22.5845604,231.731181 22.9546667,237.798556 C23.0017224,274.013801 52.3607318,303.353722 88.576,303.377223 L319.556579,303.377223 C355.74826,303.330167 385.069078,273.99026 385.092579,237.798556 C385.462685,231.731181 390.491259,227 396.569912,227 C402.648565,227 407.677139,231.731181 408.047246,237.798556 C408.011983,286.662897 368.420897,326.273072 319.556579,326.33189 L397.034667,326.33189 Z" id="Upload-2" fill-rule="nonzero"></path>
                        <path d="M135.613939,96.7098421 C132.235754,98.9698754 129.529976,100.099892 127.496606,100.099892 C124.44655,100.099892 121.523384,98.8790875 119.379273,96.7098421 C117.216612,94.5665508 116,91.6479742 116,88.6031754 C116,85.5583767 117.216612,82.6398001 119.379273,80.4965088 L196.413939,3.37650877 C197.14451,2.64704116 197.978305,2.02888299 198.888606,1.5418421 C203.760889,-1.28489521 209.966812,-0.134308063 213.501939,4.25117544 L289.747273,80.4965088 C293.79542,85.0513524 293.587199,91.9733505 289.272591,96.2766342 C284.957983,100.579918 278.035461,100.769946 273.491273,96.7098421 L216.083273,39.3018421 L216.083273,215.533947 C216.07165,221.863034 210.956273,226.997462 204.627273,227.032613 C198.281604,227.020873 193.140346,221.879616 193.128606,215.533947 L193.128606,39.1098421 L135.613939,96.7098421 Z" id="Upload-2-path"></path>
                    </g>
                </g>
            </g>
        </g>
    </g>
</svg>